# xmcd
#
# Track frame offsets:
#	150
#	22607
#	39856
#	60734
#	78156
#	94601
#	116412
#	141732
#	161175
#	180199
#	204223
#	225976
#	246462
#
# Disc length: 3630 seconds
# Revision: 0
# Processed by: cddbd v1.5.2PL0 Copyright (c) Steve Scherf et al.
# Submitted via: dBpowerAMP V12.0
#
DISCID=970e2c0d
DTITLE=Curtis Salgado - Strong Suspicions [Shanachie] (s)
DYEAR=2004
DGENRE=Blues
TTITLE0=Give Me Patience
TTITLE1=I'll Be Back
TTITLE2=Born All Over
TTITLE3=Who Is He (And What Is He To You)
TTITLE4=Can't Stop Lovin'
TTITLE5=Strong Suspicion
TTITLE6=Inside My Heart
TTITLE7=Money Must Think I'm Dead
TTITLE8=Love Her Just Because
TTITLE9=Help Me Through the Day
TTITLE10=At Least I didn't do That
TTITLE11=The Sum of Something
TTITLE12=Don't Wait Until Tomorrow (1000 MPH)
EXTD=
EXTT0=
EXTT1=
EXTT2=
EXTT3=
EXTT4=
EXTT5=
EXTT6=
EXTT7=
EXTT8=
EXTT9=
EXTT10=
EXTT11=
EXTT12=
PLAYORDER=
